# xmcd
#
# Track frame offsets:
#	150
#	15208
#	28808
#	41892
#	52259
#	65469
#	82752
#	104008
#	121340
#	137538
#	152379
#	166386
#	178018
#
# Disc length: 2575 seconds
#
# Revision: 0
# Processed by: cddbd v1.5.2PL0 Copyright (c) Steve Scherf et al.
# Submitted via: EasyCDDAExtractor 16.0.6.1
#
DISCID=a40a0d0d
DTITLE=Μπιθικώτσης Γρηγόρης - Μιά βαθιά υπόκλιση στον Γρηγόρη Μπιθικώτση
DYEAR=1997
DGENRE=Λαϊκή
TTITLE0=Μ' ένα παράπονο [Δήμος Μούτσης-Νίκος Γκάτσος]
TTITLE1=Ο μπαγλαμάς [Γιάννης Σπανός-Λευτέρης Παπαδόπουλος]
TTITLE2=Ήρθα μ' ένα δάκρυ [Δήμος Μούτσης-Νίκος Γκάτσος]
TTITLE3=Ας ερχόσουν κι ας βρεχόσουν [Γιάννης Σπανός-Κώστας Κωτούλας]
TTITLE4=Ας ήταν τ' όνειρο να βγη [Βαγγέλης Πιτσιλαδής-Γιάννης Γιούρκας]
TTITLE5=Από βυθό σ' άλλο βυθό [Σ. Ξαρχάκος-Βασ. Ανδρεόπουλος-Βαγγ. Γκούφας]
TTITLE6=Νανούρισμα [Σταύρος Ξαρχάκος-Ιάκωβος Καμπανέλλης]
TTITLE7=Τα ρολόγια [Σταύρος Ξαρχάκος-Ιάκωβος Καμπανέλλης]
TTITLE8=Μιά Κυριακή [Γιάννης Σπανός-Λευτέρης Παπαδόπουλος]
TTITLE9=Γκρεμός και βράχος [Λουκιανός Κηλαηδόνης-Νίκος Γκάτσος]
TTITLE10=Μέσα στο παλιό μου σπίτι [Δήμος Μούτσης-Γιάννης Πουλόπουλος]
TTITLE11=Το σπίτι μου [Λουκιανός Κηλαηδόνης-Νίκος Γκάτσος]
TTITLE12=Ο καιρός αλλάζει [Σταύρος Ξαρχάκος-Νίκος Γκάτσος]
EXTD=
EXTT0=
EXTT1=
EXTT2=
EXTT3=
EXTT4=
EXTT5=
EXTT6=
EXTT7=
EXTT8=
EXTT9=
EXTT10=
EXTT11=
EXTT12=
PLAYORDER=
